# xmcd CD database file
#
# Track frame offsets:
#	150
#	17157
#	35161
#
# Disc length: 787 seconds
#
# Revision: 0
# Processed by: cddbd v1.5PL3 Copyright (c) Steve Scherf et al.
# Submitted via: CDex 1.51
#
DISCID=20031103
DTITLE=ナポレナポレ - Baby cat
DYEAR=1900
DGENRE=Pop
TTITLE0=Baby cat
TTITLE1=小鳥
TTITLE2=夢の種
EXTD=
EXTT0=
EXTT1=
EXTT2=
PLAYORDER=
